<svg width="26" height="26" viewBox="0 0 26 26" fill="none" xmlns="http://www.w3.org/2000/svg">
<mask id="mask0_299_933" style="mask-type:alpha" maskUnits="userSpaceOnUse" x="0" y="0" width="26" height="26">
<rect width="26" height="26" fill="#D9D9D9"/>
</mask>
<g mask="url(#mask0_299_933)">
<path d="M3.25 24.9167V7.58334C3.25 6.98751 3.46197 6.47762 3.88592 6.05368C4.31058 5.62901 4.82083 5.41668 5.41667 5.41668H16.25C16.8458 5.41668 17.3561 5.62901 17.7808 6.05368C18.2047 6.47762 18.4167 6.98751 18.4167 7.58334V24.9167L10.8333 21.6667L3.25 24.9167ZM20.5833 21.6667V3.25001H6.5V1.08334H20.5833C21.1792 1.08334 21.6894 1.29532 22.1141 1.71926C22.538 2.14393 22.75 2.65418 22.75 3.25001V21.6667H20.5833Z" fill="white" fill-opacity="0.9"/>
</g>
</svg>
