<svg width="26" height="26" viewBox="0 0 26 26" fill="none" xmlns="http://www.w3.org/2000/svg">
<mask id="mask0_299_921" style="mask-type:alpha" maskUnits="userSpaceOnUse" x="0" y="0" width="26" height="26">
<rect width="26" height="26" fill="#D9D9D9"/>
</mask>
<g mask="url(#mask0_299_921)">
<path d="M6.50033 15.1667H19.5003V13H6.50033V15.1667ZM6.50033 11.9167H19.5003V9.75H6.50033V11.9167ZM6.50033 8.66667H19.5003V6.5H6.50033V8.66667ZM23.8337 23.8333L19.5003 19.5H4.33366C3.73783 19.5 3.22794 19.288 2.80399 18.8641C2.37933 18.4394 2.16699 17.9292 2.16699 17.3333V4.33334C2.16699 3.7375 2.37933 3.22725 2.80399 2.80259C3.22794 2.37864 3.73783 2.16667 4.33366 2.16667H21.667C22.2628 2.16667 22.7731 2.37864 23.1977 2.80259C23.6217 3.22725 23.8337 3.7375 23.8337 4.33334V23.8333Z" fill="white" fill-opacity="0.9"/>
</g>
</svg>
