<svg width="26" height="26" viewBox="0 0 26 26" fill="none" xmlns="http://www.w3.org/2000/svg">
<mask id="mask0_307_1173" style="mask-type:alpha" maskUnits="userSpaceOnUse" x="0" y="0" width="26" height="26">
<rect width="26" height="26" fill="#D9D9D9"/>
</mask>
<g mask="url(#mask0_307_1173)">
<path d="M3.25 24.9166V7.58325C3.25 6.98742 3.46197 6.47753 3.88592 6.05358C4.31058 5.62892 4.82083 5.41658 5.41667 5.41658H16.25C16.8458 5.41658 17.3561 5.62892 17.7808 6.05358C18.2047 6.47753 18.4167 6.98742 18.4167 7.58325V24.9166L10.8333 21.6666L3.25 24.9166ZM20.5833 21.6666V3.24992H6.5V1.08325H20.5833C21.1792 1.08325 21.6894 1.29522 22.1141 1.71917C22.538 2.14384 22.75 2.65409 22.75 3.24992V21.6666H20.5833Z" fill="#47C87A"/>
</g>
</svg>
