<svg width="22" height="28" viewBox="0 0 22 28" fill="none" xmlns="http://www.w3.org/2000/svg">
<path d="M0 23.375V20.625H2.75V11C2.75 9.09792 3.32292 7.40758 4.46875 5.929C5.61458 4.45133 7.10417 3.48333 8.9375 3.025V2.0625C8.9375 1.48958 9.13825 1.00283 9.53975 0.60225C9.94033 0.20075 10.4271 0 11 0C11.5729 0 12.0597 0.20075 12.4603 0.60225C12.8618 1.00283 13.0625 1.48958 13.0625 2.0625V3.025C14.8958 3.48333 16.3854 4.45133 17.5312 5.929C18.6771 7.40758 19.25 9.09792 19.25 11V20.625H22V23.375H0ZM11 27.5C10.2437 27.5 9.59658 27.231 9.0585 26.6929C8.5195 26.1539 8.25 25.5063 8.25 24.75H13.75C13.75 25.5063 13.481 26.1539 12.9429 26.6929C12.4039 27.231 11.7563 27.5 11 27.5Z" fill="#47C87A"/>
</svg>
