<svg width="22" height="22" viewBox="0 0 22 22" fill="none" xmlns="http://www.w3.org/2000/svg">
<mask id="mask0_303_985" style="mask-type:alpha" maskUnits="userSpaceOnUse" x="0" y="0" width="22" height="22">
<rect width="22" height="22" fill="#D9D9D9"/>
</mask>
<g mask="url(#mask0_303_985)">
<path d="M16.4997 18.4482H7.33301V6.55649L13.7497 0.153244L14.8955 1.29668C15.0025 1.4034 15.0905 1.54824 15.1595 1.73119C15.228 1.91414 15.2622 2.08946 15.2622 2.25717V2.57733L14.2538 6.55649H19.2497C19.7386 6.55649 20.1663 6.73944 20.533 7.10534C20.8997 7.47124 21.083 7.89812 21.083 8.38598V10.2155C21.083 10.3222 21.0714 10.4365 21.0482 10.5585C21.0256 10.6805 20.9913 10.7948 20.9455 10.9015L18.1955 17.3505C18.058 17.6554 17.8288 17.9146 17.508 18.1281C17.1872 18.3415 16.8511 18.4482 16.4997 18.4482ZM5.49967 6.55649V18.4482H1.83301V6.55649H5.49967Z" fill="white" fill-opacity="0.8"/>
</g>
</svg>
