<svg width="20" height="27" viewBox="0 0 20 27" fill="none" xmlns="http://www.w3.org/2000/svg">
<path d="M2.5 26.25C1.8125 26.25 1.22417 26.0054 0.735 25.5162C0.245 25.0262 0 24.4375 0 23.75V11.25C0 10.5625 0.245 9.97375 0.735 9.48375C1.22417 8.99458 1.8125 8.75 2.5 8.75H3.75V6.25C3.75 4.52083 4.35958 3.04667 5.57875 1.8275C6.79708 0.609167 8.27083 0 10 0C11.7292 0 13.2033 0.609167 14.4225 1.8275C15.6408 3.04667 16.25 4.52083 16.25 6.25V8.75H17.5C18.1875 8.75 18.7763 8.99458 19.2663 9.48375C19.7554 9.97375 20 10.5625 20 11.25V23.75C20 24.4375 19.7554 25.0262 19.2663 25.5162C18.7763 26.0054 18.1875 26.25 17.5 26.25H2.5ZM10 20C10.6875 20 11.2763 19.7554 11.7663 19.2662C12.2554 18.7762 12.5 18.1875 12.5 17.5C12.5 16.8125 12.2554 16.2237 11.7663 15.7337C11.2763 15.2446 10.6875 15 10 15C9.3125 15 8.72417 15.2446 8.235 15.7337C7.745 16.2237 7.5 16.8125 7.5 17.5C7.5 18.1875 7.745 18.7762 8.235 19.2662C8.72417 19.7554 9.3125 20 10 20ZM6.25 8.75H13.75V6.25C13.75 5.20833 13.3854 4.32292 12.6562 3.59375C11.9271 2.86458 11.0417 2.5 10 2.5C8.95833 2.5 8.07292 2.86458 7.34375 3.59375C6.61458 4.32292 6.25 5.20833 6.25 6.25V8.75Z" fill="white" fill-opacity="0.8"/>
</svg>
