<svg width="200" height="120" viewBox="0 0 200 120" fill="none" xmlns="http://www.w3.org/2000/svg">
<g clip-path="url(#clip0_687_168)">
<path d="M153.125 118.22C150.564 116.056 149.009 112.638 149.417 109.311C149.825 105.984 152.351 102.925 155.628 102.218C158.905 101.512 162.64 103.468 163.636 106.669C164.183 100.497 164.815 94.0669 168.096 88.8112C171.067 84.0524 176.213 80.6472 181.79 80.038C187.367 79.4288 193.239 81.7296 196.717 86.1315C200.195 90.5334 201.047 96.9328 198.611 101.986C196.816 105.709 193.51 108.48 190.046 110.734C178.852 117.956 165.427 120.893 152.24 119.005L153.125 118.22Z" fill="#F2F2F2"/>
<path d="M191.202 81.8573C186.6 85.6054 182.378 89.7975 178.598 94.3728C172.682 101.509 167.894 109.509 164.402 118.096C164.147 118.722 165.164 118.995 165.417 118.375C171.13 104.42 180.251 92.1206 191.946 82.6011C192.471 82.1735 191.723 81.4332 191.202 81.8573Z" fill="white"/>
<path d="M64.3832 117.632C67.9001 114.66 70.0363 109.966 69.4761 105.396C68.9159 100.826 65.4461 96.6243 60.9452 95.6538C56.4443 94.6834 51.3136 97.3698 49.9465 101.767C49.1941 93.2899 48.3272 84.458 43.8204 77.2394C39.7397 70.703 32.6718 66.026 25.0118 65.1893C17.3517 64.3526 9.28672 67.5128 4.50944 73.5587C-0.267838 79.6047 -1.43753 88.3943 1.90835 95.3355C4.37314 100.449 8.91416 104.254 13.672 107.35C28.8512 117.227 47.681 121.347 65.5978 118.71" fill="#F2F2F2"/>
<path d="M12.0841 67.6878C18.4046 72.836 24.203 78.5937 29.3953 84.8778C34.5886 91.1555 39.1606 97.9221 43.0473 105.083C45.2198 109.099 47.1714 113.232 48.8934 117.461C49.2445 118.321 47.8474 118.696 47.5002 117.845C44.4501 110.389 40.6766 103.249 36.2338 96.5286C31.8125 89.8326 26.7521 83.5812 21.1237 77.8623C17.9403 74.6293 14.5815 71.5737 11.0625 68.7095C10.3412 68.1221 11.3688 67.1054 12.0841 67.6879L12.0841 67.6878Z" fill="white"/>
<path d="M143.563 119.31H59.6553V33.2184C59.6553 14.9017 74.5569 0 92.8736 0H110.345C128.662 0 143.563 14.9017 143.563 33.2184V119.31Z" fill="#F2F2F2"/>
<path d="M126.092 119.31H59.6554V33.2185C59.637 26.1999 61.8595 19.3588 65.9992 13.691C66.1518 13.483 66.304 13.2777 66.461 13.0747C68.4634 10.4485 70.8462 8.13564 73.5309 6.21248C73.6826 6.10213 73.8348 5.99371 73.9894 5.88527C76.2358 4.33066 78.6659 3.05979 81.2243 2.1016C81.3763 2.04401 81.5309 1.98632 81.6856 1.93098C83.9995 1.10525 86.398 0.539625 88.837 0.244556C88.9882 0.223901 89.1434 0.207738 89.2987 0.191575C91.6754 -0.0625562 94.0726 -0.0625562 96.4493 0.191575C96.6041 0.207738 96.7594 0.223899 96.9124 0.244777C99.3507 0.539865 101.749 1.10542 104.062 1.93099C104.217 1.98633 104.371 2.04402 104.524 2.10172C107.05 3.04782 109.452 4.29973 111.675 5.82949C111.829 5.93557 111.984 6.044 112.136 6.15243C113.641 7.22662 115.054 8.42334 116.362 9.73036C117.411 10.7787 118.388 11.8962 119.287 13.0754C119.444 13.2778 119.596 13.4831 119.748 13.6907C123.888 19.3585 126.11 26.1998 126.092 33.2185V119.31Z" fill="#CCCCCC"/>
<path d="M120.69 80.8046C122.721 80.8046 124.368 79.1578 124.368 77.1264C124.368 75.095 122.721 73.4482 120.69 73.4482C118.658 73.4482 117.012 75.095 117.012 77.1264C117.012 79.1578 118.658 80.8046 120.69 80.8046Z" fill="#47C87A"/>
<path d="M136.69 116.732H133.871L132.53 105.861L136.69 105.861L136.69 116.732Z" fill="#FFB8B8"/>
<path d="M131.858 115.927H137.293V119.349H128.436C128.436 118.899 128.524 118.454 128.696 118.039C128.868 117.624 129.12 117.247 129.438 116.929C129.756 116.611 130.133 116.359 130.548 116.187C130.963 116.015 131.408 115.927 131.858 115.927V115.927Z" fill="#2F2E41"/>
<path d="M150.713 116.732H147.894L146.553 105.861L150.713 105.861L150.713 116.732Z" fill="#FFB8B8"/>
<path d="M145.881 115.927H151.316V119.349H142.458C142.458 118.899 142.547 118.454 142.719 118.039C142.891 117.624 143.143 117.247 143.461 116.929C143.779 116.611 144.156 116.359 144.571 116.187C144.986 116.015 145.431 115.927 145.881 115.927V115.927Z" fill="#2F2E41"/>
<path d="M122.551 77.8551C122.348 77.5564 122.214 77.2168 122.156 76.8604C122.099 76.5039 122.121 76.1392 122.219 75.792C122.318 75.4447 122.492 75.1234 122.729 74.8506C122.965 74.5778 123.258 74.3601 123.588 74.213L133.169 47.8069L137.883 50.3796L126.944 75.6143C127.154 76.1845 127.148 76.8122 126.927 77.3783C126.706 77.9444 126.284 78.4096 125.743 78.6858C125.201 78.962 124.577 79.03 123.989 78.8769C123.401 78.7238 122.889 78.3602 122.551 77.8551V77.8551Z" fill="#FFB8B8"/>
<path d="M149.273 82.8169C148.959 82.6373 148.689 82.3913 148.482 82.096C148.274 81.8008 148.133 81.4636 148.07 81.1082C148.006 80.7528 148.022 80.3878 148.115 80.0389C148.208 79.69 148.376 79.3658 148.608 79.089L145.64 51.1558L151.005 51.4009L152.238 78.8768C152.677 79.2971 152.947 79.8638 152.996 80.4696C153.046 81.0755 152.871 81.6784 152.505 82.164C152.14 82.6497 151.609 82.9844 151.013 83.1047C150.417 83.2251 149.798 83.1227 149.273 82.8169V82.8169Z" fill="#FFB8B8"/>
<path d="M140.714 42.9157C143.832 42.9157 146.36 40.3878 146.36 37.2695C146.36 34.1512 143.832 31.6233 140.714 31.6233C137.596 31.6233 135.068 34.1512 135.068 37.2695C135.068 40.3878 137.596 42.9157 140.714 42.9157Z" fill="#FFB8B8"/>
<path d="M149.237 76.4641H132.214L132.235 76.3317C132.265 76.1337 135.269 56.4607 133.054 50.0246C132.831 49.3921 132.851 48.6997 133.109 48.0808C133.366 47.4619 133.844 46.9601 134.449 46.672H134.449C137.615 45.1811 143.692 43.3453 148.821 47.8006C149.576 48.467 150.166 49.2998 150.543 50.2333C150.92 51.1668 151.075 52.1752 150.996 53.179L149.237 76.4641Z" fill="#47C87A"/>
<path d="M135.484 59.3678L127.82 57.8131L131.413 49.3005C131.628 48.476 132.161 47.7704 132.895 47.3385C133.63 46.9066 134.506 46.7837 135.331 46.9967C136.156 47.2097 136.862 47.7412 137.296 48.4746C137.73 49.2081 137.855 50.0836 137.644 50.9091L135.484 59.3678Z" fill="#47C87A"/>
<path d="M145.299 62.2548L144.838 51.6936C144.489 49.7082 145.625 47.8314 147.373 47.5247C149.121 47.219 150.829 48.596 151.18 50.5959L152.911 60.4643L145.299 62.2548Z" fill="#47C87A"/>
<path d="M148.67 75.1997C151.409 85.6311 151.708 98.8938 150.969 113.361L147.291 112.901L140.624 85.3147L136.946 113.361L132.808 113.131C131.572 97.9515 130.368 84.9203 132.348 76.3491L148.67 75.1997Z" fill="#2F2E41"/>
<path d="M144.434 41.6331C143.381 42.7552 141.425 42.1528 141.287 40.62C141.277 40.501 141.277 40.3812 141.29 40.2624C141.361 39.5834 141.753 38.967 141.659 38.2501C141.638 38.0716 141.571 37.9016 141.466 37.7561C140.626 36.6321 138.656 38.2588 137.864 37.2413C137.378 36.6174 137.949 35.635 137.576 34.9377C137.084 34.0173 135.627 34.4714 134.713 33.9673C133.697 33.4065 133.758 31.8466 134.427 30.8977C135.243 29.7406 136.674 29.1231 138.087 29.0342C139.501 28.9452 140.904 29.3272 142.224 29.8414C143.723 30.4256 145.209 31.233 146.132 32.5512C147.254 34.1542 147.362 36.3093 146.801 38.1837C146.459 39.324 145.294 40.7169 144.434 41.6331Z" fill="#2F2E41"/>
<path d="M193.099 119.458H23.3764C23.304 119.458 23.2346 119.429 23.1834 119.378C23.1322 119.327 23.1035 119.257 23.1035 119.185C23.1035 119.112 23.1322 119.043 23.1834 118.991C23.2346 118.94 23.304 118.911 23.3764 118.911H193.099C193.172 118.911 193.241 118.94 193.292 118.991C193.343 119.043 193.372 119.112 193.372 119.185C193.372 119.257 193.343 119.327 193.292 119.378C193.241 119.429 193.172 119.458 193.099 119.458V119.458Z" fill="#3F3D56"/>
<path d="M107.816 94.3679H77.9313C77.5377 94.37 77.1593 94.2159 76.8792 93.9394C76.5991 93.6629 76.4401 93.2866 76.437 92.8931V26.1875C76.4401 25.7939 76.5991 25.4176 76.8792 25.1411C77.1593 24.8646 77.5377 24.7105 77.9313 24.7127H107.816C108.21 24.7105 108.588 24.8646 108.868 25.1411C109.149 25.4176 109.308 25.7939 109.311 26.1875V92.8931C109.308 93.2866 109.149 93.6629 108.868 93.9394C108.588 94.2159 108.21 94.37 107.816 94.3679V94.3679Z" fill="white"/>
<path d="M109.311 46.2964H76.437V46.7562H109.311V46.2964Z" fill="#CCCCCC"/>
<path d="M109.425 72.5288H76.5518V72.9886H109.425V72.5288Z" fill="#CCCCCC"/>
<path d="M87.2415 24.7126H86.7817V94.5977H87.2415V24.7126Z" fill="#CCCCCC"/>
<path d="M98.7356 24.7126H98.2759V94.5977H98.7356V24.7126Z" fill="#CCCCCC"/>
</g>
<defs>
<clipPath id="clip0_687_168">
<rect width="200" height="119.572" fill="white"/>
</clipPath>
</defs>
</svg>
