<svg width="350" height="227" viewBox="0 0 350 227" fill="none" xmlns="http://www.w3.org/2000/svg">
<g clip-path="url(#clip0_729_726)">
<path d="M319.237 226.256L309.241 196.089C309.241 196.089 320.236 207.085 320.236 216.107L318.263 195.244C318.263 195.244 323.901 202.856 323.337 214.415C322.774 225.974 319.237 226.256 319.237 226.256Z" fill="#E6E6E6"/>
<path d="M104.566 198.788L94.8101 169.346C94.8101 169.346 105.541 180.078 105.541 188.882L103.615 168.521C103.615 168.521 109.118 175.95 108.568 187.232C108.018 198.513 104.566 198.788 104.566 198.788Z" fill="#E6E6E6"/>
<path d="M256.84 212.374C256.857 231.742 218.445 225.784 171.419 225.825C124.393 225.865 86.5612 231.888 86.5444 212.521C86.5277 193.154 124.926 188.909 171.952 188.868C218.978 188.827 256.824 193.007 256.84 212.374Z" fill="#E6E6E6"/>
<path d="M350 225.813H0V226.7H350V225.813Z" fill="#3F3D56"/>
<path d="M223.883 186.218H217.735L214.809 162.505H223.883V186.218Z" fill="#A0616A"/>
<path d="M212.661 184.462H225.201V191.927H205.878V191.244C205.878 189.446 206.593 187.72 207.865 186.448C209.137 185.176 210.862 184.462 212.661 184.462Z" fill="#2F2E41"/>
<path d="M269.073 221.218H262.925L259.999 197.505H269.073V221.218Z" fill="#A0616A"/>
<path d="M257.851 219.462H270.391V226.927H251.068V226.244C251.068 224.446 251.783 222.72 253.055 221.448C254.327 220.176 256.052 219.462 257.851 219.462Z" fill="#2F2E41"/>
<path d="M297.431 150.77C297.856 150.254 298.163 149.652 298.33 149.005C298.497 148.358 298.521 147.682 298.398 147.025C298.276 146.369 298.011 145.746 297.622 145.203C297.234 144.66 296.73 144.208 296.148 143.88L281.869 85.7124L272.739 89.6406L289.723 145.884C289.237 146.898 289.14 148.056 289.45 149.137C289.761 150.218 290.457 151.148 291.407 151.75C292.357 152.353 293.495 152.586 294.606 152.405C295.716 152.224 296.721 151.642 297.431 150.77Z" fill="#A0616A"/>
<path d="M286.295 33.2118C285.785 32.679 285.165 32.2645 284.478 31.9974C283.791 31.7303 283.053 31.6171 282.318 31.6658C281.582 31.7145 280.866 31.9238 280.22 32.2792C279.574 32.6345 279.014 33.1271 278.579 33.7224L256.478 36.2597L259.84 44.7844L279.94 41.0226C280.988 41.687 282.244 41.9438 283.469 41.7442C284.694 41.5447 285.803 40.9027 286.587 39.9399C287.37 38.9771 287.773 37.7604 287.719 36.5204C287.665 35.2803 287.159 34.1031 286.295 33.2118Z" fill="#A0616A"/>
<path d="M249.874 144.737L259.518 217.118L271.521 214.647C271.521 214.647 269.756 161.934 275.758 155.579C281.759 149.224 268.038 138.092 268.038 138.092L249.874 144.737Z" fill="#2F2E41"/>
<path d="M253.861 124.801L249.431 131.446C249.431 131.446 215.317 117.27 215.317 139.864C215.317 162.459 213.364 177.792 212.658 178.851C211.952 179.911 220.827 182.659 225.063 181.953C225.063 181.953 230.29 145.527 229.937 143.408C229.937 143.408 263.401 159.816 269.756 158.403C276.111 156.991 277.612 151.992 278.671 149.168C279.73 146.344 278.228 123.915 278.228 123.915L257.046 117.451L253.861 124.801Z" fill="#2F2E41"/>
<path d="M254.459 84.9008L253.196 83.3854C253.196 83.3854 239.053 51.5628 244.609 42.9758C250.165 34.3887 274.411 33.1259 275.169 33.631C275.926 34.1361 273.359 40.6943 275.127 43.725C275.127 43.725 256.345 47.7971 255.082 48.3022C253.819 48.8073 264.814 67.4741 264.814 67.4741L263.551 78.8393L254.459 84.9008Z" fill="#CCCCCC"/>
<path d="M279.209 69.2416C279.209 69.2416 266.076 70.7569 265.571 70.7569C265.066 70.7569 264.813 67.4736 264.813 67.4736L253.196 83.3849C253.196 83.3849 247.472 129.546 248.987 128.788C250.503 128.03 278.452 132.382 278.704 130.361C278.957 128.341 278.452 118.238 279.209 117.733C279.967 117.228 292.342 85.9105 292.342 85.9105C292.342 85.9105 291.08 79.344 286.786 77.0709C282.493 74.7979 279.209 69.2416 279.209 69.2416Z" fill="#CCCCCC"/>
<path d="M288.302 81.6172L292.343 85.9107C292.343 85.9107 298.347 135.247 295.063 136.763C291.78 138.278 285.317 138.092 285.317 138.092L278.957 114.703L288.302 81.6172Z" fill="#CCCCCC"/>
<path d="M266.589 66.1172C273.009 66.1172 278.214 60.9127 278.214 54.4925C278.214 48.0723 273.009 42.8677 266.589 42.8677C260.169 42.8677 254.964 48.0723 254.964 54.4925C254.964 60.9127 260.169 66.1172 266.589 66.1172Z" fill="#A0616A"/>
<path d="M263.861 56.3064C263.704 53.8943 260.661 53.8117 258.244 53.7888C255.827 53.766 252.937 53.8523 251.57 51.8592C250.666 50.5421 250.839 48.7135 251.585 47.3013C252.332 45.8892 253.56 44.803 254.769 43.7582C257.888 41.0606 261.103 38.3844 264.849 36.6578C268.594 34.9311 272.983 34.2335 276.867 35.6195C281.639 37.3221 288.089 46.0867 288.646 51.1222C289.203 56.1577 287.191 61.291 283.798 65.0539C280.406 68.8168 272.642 67.2985 267.756 68.6372C270.726 64.4329 268.768 56.7936 264.01 54.8303L263.861 56.3064Z" fill="#2F2E41"/>
<path d="M160.256 206.675C175.669 206.675 188.163 194.18 188.163 178.768C188.163 163.356 175.669 150.861 160.256 150.861C144.844 150.861 132.35 163.356 132.35 178.768C132.35 194.18 144.844 206.675 160.256 206.675Z" fill="#47C87A"/>
<path d="M141.62 148.878C137.752 148.879 133.967 147.758 130.723 145.652C127.479 143.545 124.916 140.544 123.342 137.011L79.0594 37.2868C77.5926 33.9834 76.8168 30.415 76.7797 26.8007C76.7427 23.1865 77.4452 19.6029 78.8441 16.2702C80.2429 12.9374 82.3086 9.92597 84.9141 7.42092C87.5197 4.91588 90.61 2.97016 93.9951 1.70336C97.3803 0.436567 100.989 -0.124544 104.599 0.0545253C108.209 0.233595 111.744 1.14906 114.987 2.74465C118.23 4.34024 121.113 6.58224 123.458 9.33284C125.802 12.0834 127.56 15.2845 128.622 18.7394L160.688 123.036C161.606 126.021 161.811 129.18 161.287 132.259C160.763 135.338 159.523 138.251 157.669 140.764C155.815 143.278 153.397 145.321 150.609 146.73C147.822 148.139 144.743 148.875 141.62 148.878H141.62Z" fill="#47C87A"/>
</g>
<defs>
<clipPath id="clip0_729_726">
<rect width="350" height="226.928" fill="white"/>
</clipPath>
</defs>
</svg>
