<svg width="20" height="20" viewBox="0 0 20 20" fill="none" xmlns="http://www.w3.org/2000/svg">
<path d="M3.66667 16.1876C3.38889 16.2987 3.125 16.2743 2.875 16.1143C2.625 15.9548 2.5 15.7223 2.5 15.4168V12.3126C2.5 12.1181 2.55556 11.9445 2.66667 11.7918C2.77778 11.639 2.93056 11.5418 3.125 11.5001L9.16667 10.0001L3.125 8.50009C2.93056 8.45842 2.77778 8.3612 2.66667 8.20842C2.55556 8.05564 2.5 7.88203 2.5 7.68759V4.58342C2.5 4.27786 2.625 4.04509 2.875 3.88509C3.125 3.72564 3.38889 3.70148 3.66667 3.81259L16.5 9.22925C16.8472 9.38203 17.0208 9.63898 17.0208 10.0001C17.0208 10.3612 16.8472 10.6181 16.5 10.7709L3.66667 16.1876Z" fill="#47C87A"/>
</svg>
