<svg width="28" height="28" viewBox="0 0 28 28" fill="none" xmlns="http://www.w3.org/2000/svg">
<path d="M10.5002 18.6667H12.8335V15.1667H16.3335V12.8333H12.8335V9.33334H10.5002V12.8333H7.00016V15.1667H10.5002V18.6667ZM4.66683 23.3333C4.02516 23.3333 3.47605 23.1051 3.0195 22.6485C2.56216 22.1912 2.3335 21.6417 2.3335 21V7.00001C2.3335 6.35834 2.56216 5.80923 3.0195 5.35267C3.47605 4.89534 4.02516 4.66667 4.66683 4.66667H18.6668C19.3085 4.66667 19.858 4.89534 20.3153 5.35267C20.7719 5.80923 21.0002 6.35834 21.0002 7.00001V12.25L25.6668 7.58334V20.4167L21.0002 15.75V21C21.0002 21.6417 20.7719 22.1912 20.3153 22.6485C19.858 23.1051 19.3085 23.3333 18.6668 23.3333H4.66683ZM4.66683 21H18.6668V7.00001H4.66683V21ZM4.66683 21V7.00001V21Z" fill="#47C87A"/>
</svg>
