<svg width="300" height="251" viewBox="0 0 300 251" fill="none" xmlns="http://www.w3.org/2000/svg">
<g clip-path="url(#clip0_1129_6)">
<path d="M150.227 53.7199C148.143 55.2124 145.866 56.4159 143.458 57.2978C142.835 57.5317 142.201 57.747 141.565 57.9404H113.348C113.226 57.7251 113.104 57.513 112.983 57.2978C110.543 52.9588 108.31 48.4482 107.686 43.5415C106.953 37.7707 109.009 31.2357 114.09 28.4002C114.756 28.0294 115.461 27.7334 116.192 27.5175C116.495 27.427 116.804 27.3521 117.116 27.2866C119.02 26.8639 121.003 26.9561 122.861 27.5537C124.718 28.1513 126.383 29.2329 127.683 30.6871C128.984 32.1413 129.874 33.9157 130.262 35.8278C130.65 37.74 130.521 39.7209 129.889 41.567C134.197 37.15 133.392 29.988 131.908 24.002C130.42 18.0128 128.617 11.353 131.646 5.97529C133.327 2.98386 136.287 1.12473 139.606 0.379221C139.709 0.357385 139.812 0.335542 139.912 0.313706C143.869 -0.486222 147.982 0.234395 151.431 2.33191C157.779 6.33403 161.042 13.9203 162.1 21.3536C163.806 33.3132 160.032 46.6577 150.227 53.7199Z" fill="#F2F2F2"/>
<path d="M119.415 31.0953C121.759 35.8594 122.507 41.2514 121.548 46.4737C120.802 50.4169 119.13 54.1266 116.67 57.2978C116.501 57.513 116.33 57.7282 116.152 57.9404H114.985C115.173 57.7282 115.357 57.5161 115.534 57.2978C117.74 54.6292 119.345 51.5172 120.241 48.1731C121.138 44.829 121.304 41.3312 120.728 37.9173C120.056 34.1422 118.502 30.579 116.193 27.5175C116.495 27.427 116.804 27.3521 117.116 27.2866C117.994 28.4855 118.763 29.7601 119.415 31.0953Z" fill="white"/>
<path d="M147.445 34.5515C147.194 37.1892 146.561 39.7763 145.564 42.2313C144.644 44.4034 143.406 46.4262 141.889 48.2329C138.735 51.9243 134.741 54.8042 130.242 56.6302C129.677 56.8673 129.103 57.0919 128.529 57.2977C127.893 57.5286 127.252 57.7428 126.608 57.9403H123.133C123.984 57.75 124.827 57.5379 125.663 57.2977C127.727 56.713 129.738 55.9501 131.67 55.0175C135.85 53.0365 139.48 50.0586 142.239 46.3457C145.199 42.2625 146.506 37.3496 146.727 32.3555C146.901 26.9762 146.338 21.5984 145.052 16.372C143.808 11.0422 141.915 5.88494 139.416 1.01555C139.36 0.905309 139.348 0.777822 139.384 0.659409C139.419 0.540997 139.499 0.440695 139.606 0.379206C139.65 0.348565 139.7 0.326994 139.752 0.315747C139.805 0.304501 139.859 0.303807 139.912 0.313698C139.964 0.328283 140.012 0.353968 140.053 0.388977C140.094 0.423987 140.126 0.46748 140.149 0.51644C140.458 1.11849 140.76 1.72052 141.05 2.32879C143.473 7.39993 145.257 12.752 146.362 18.2624C147.432 23.5777 148.006 29.1363 147.445 34.5515Z" fill="white"/>
<path d="M217.433 112.987C223.784 112.987 228.934 107.838 228.934 101.486C228.934 95.1346 223.784 89.9855 217.433 89.9855C211.081 89.9855 205.932 95.1346 205.932 101.486C205.932 107.838 211.081 112.987 217.433 112.987Z" fill="#2F2E41"/>
<path d="M214.705 245.046L209.669 245.045L207.273 225.622L214.706 225.622L214.705 245.046Z" fill="#A0616A"/>
<path d="M215.989 249.927L199.752 249.927V249.721C199.752 248.891 199.915 248.069 200.233 247.303C200.551 246.536 201.016 245.839 201.603 245.252C202.19 244.665 202.887 244.2 203.653 243.882C204.42 243.565 205.242 243.401 206.072 243.401L215.989 243.402L215.989 249.927Z" fill="#2F2E41"/>
<path d="M248.621 240.754L243.821 242.277L235.666 224.486L242.751 222.239L248.621 240.754Z" fill="#A0616A"/>
<path d="M251.322 245.019L235.844 249.927L235.782 249.731C235.531 248.94 235.439 248.107 235.509 247.28C235.58 246.454 235.814 245.649 236.196 244.912C236.578 244.175 237.101 243.521 237.736 242.986C238.371 242.452 239.105 242.047 239.896 241.797L239.896 241.796L249.349 238.799L251.322 245.019Z" fill="#2F2E41"/>
<path d="M214.285 239.909H209.977C209.543 239.909 209.123 239.757 208.79 239.479C208.457 239.2 208.234 238.813 208.158 238.386L197.889 168.225L228.471 169.265L248.139 233.695C248.209 233.95 248.224 234.217 248.183 234.478C248.141 234.739 248.044 234.988 247.898 235.208C247.752 235.428 247.561 235.615 247.337 235.755C247.113 235.895 246.861 235.985 246.599 236.02L241.048 238.123C240.655 238.171 240.257 238.091 239.914 237.895C239.57 237.698 239.299 237.396 239.141 237.034L215.089 182.542C215.031 182.411 214.929 182.304 214.801 182.239C214.673 182.175 214.526 182.158 214.386 182.19C214.247 182.223 214.123 182.303 214.036 182.417C213.949 182.531 213.904 182.672 213.91 182.815L216.132 237.986C216.142 238.235 216.101 238.483 216.013 238.716C215.925 238.949 215.79 239.161 215.618 239.341C215.445 239.521 215.238 239.663 215.009 239.761C214.78 239.859 214.534 239.909 214.285 239.909Z" fill="#2F2E41"/>
<path d="M217.637 114.56C223.209 114.56 227.726 110.043 227.726 104.472C227.726 98.9001 223.209 94.3833 217.637 94.3833C212.066 94.3833 207.549 98.9001 207.549 104.472C207.549 110.043 212.066 114.56 217.637 114.56Z" fill="#A0616A"/>
<path d="M216.286 176.269C211.068 176.269 204.794 174.951 198.063 170.742C197.716 170.525 197.451 170.2 197.308 169.817C197.165 169.434 197.153 169.015 197.273 168.624L203.879 147.255L203.796 129.866C204.051 127.084 205.18 124.454 207.02 122.353C208.861 120.252 211.319 118.787 214.043 118.168C214.163 118.14 214.284 118.114 214.406 118.087C216.455 117.635 218.584 117.69 220.607 118.246C222.631 118.802 224.488 119.843 226.019 121.279C227.588 122.727 228.786 124.532 229.512 126.541C230.238 128.55 230.47 130.704 230.189 132.821L228.525 158.364L230.783 171.159C230.853 171.546 230.797 171.946 230.623 172.299C230.449 172.652 230.166 172.939 229.816 173.119C225.613 175.209 220.98 176.287 216.286 176.269Z" fill="#47C87A"/>
<path d="M208.856 155.827C208.648 155.734 208.434 155.657 208.215 155.597L201.751 136.279L205.024 132.567L200.068 126.896L193.635 132.903C193.115 133.389 192.767 134.029 192.643 134.73C192.518 135.43 192.624 136.151 192.945 136.786L203.391 157.473C202.929 158.218 202.705 159.085 202.749 159.959C202.792 160.834 203.101 161.674 203.634 162.369C204.167 163.064 204.899 163.58 205.732 163.849C206.565 164.117 207.461 164.126 208.299 163.873C209.137 163.621 209.879 163.119 210.425 162.435C210.971 161.75 211.296 160.916 211.357 160.042C211.417 159.169 211.21 158.298 210.763 157.545C210.317 156.792 209.651 156.193 208.856 155.827Z" fill="#A0616A"/>
<path d="M201.396 135.605L195.288 128.546C195.114 128.345 194.985 128.109 194.911 127.854C194.836 127.599 194.818 127.331 194.856 127.068C194.895 126.805 194.99 126.554 195.134 126.331C195.279 126.108 195.47 125.919 195.694 125.776L203.548 120.784C204.581 119.9 205.922 119.462 207.277 119.566C208.632 119.67 209.891 120.307 210.777 121.337C211.663 122.367 212.105 123.707 212.005 125.062C211.905 126.418 211.271 127.678 210.243 128.567L204.195 135.601C204.021 135.802 203.807 135.964 203.566 136.075C203.324 136.186 203.062 136.244 202.796 136.244C202.531 136.244 202.268 136.187 202.026 136.077C201.785 135.967 201.57 135.806 201.396 135.605Z" fill="#47C87A"/>
<path d="M205.513 94.8295C204.714 95.2735 204.014 95.8776 203.458 96.6042C202.97 97.3537 202.87 98.3966 203.48 99.0645C204.201 99.8539 205.505 99.7994 206.61 99.6775L217.848 98.4389L213.424 101.561L224.061 100.499C225.919 100.314 228.061 99.9622 228.967 98.4411C230.029 96.6564 228.677 94.4407 227.06 93.0619C223.795 90.3506 219.613 88.996 215.377 89.2773C211.167 89.5513 207.229 91.4533 204.398 94.5804L205.513 94.8295Z" fill="#2F2E41"/>
<path d="M216.757 148.753H216.633V145.352C216.633 144.83 216.425 144.329 216.056 143.96C215.687 143.59 215.186 143.383 214.664 143.383H207.457C206.935 143.383 206.434 143.59 206.065 143.96C205.696 144.329 205.488 144.83 205.488 145.352V164.013C205.488 164.535 205.696 165.036 206.065 165.405C206.434 165.775 206.935 165.982 207.457 165.982H214.664C215.186 165.982 215.687 165.775 216.056 165.405C216.425 165.036 216.633 164.535 216.633 164.013V151.175H216.757L216.757 148.753Z" fill="#3F3D56"/>
<path d="M210.861 151.187C211.768 151.187 212.504 150.452 212.504 149.544C212.504 148.637 211.768 147.901 210.861 147.901C209.953 147.901 209.218 148.637 209.218 149.544C209.218 150.452 209.953 151.187 210.861 151.187Z" fill="white"/>
<path d="M212.451 154.119C212.677 154.143 212.901 154.184 213.121 154.244L228.459 140.838L227.509 135.982L234.652 133.591L237.168 142.025C237.371 142.707 237.348 143.436 237.102 144.103C236.856 144.77 236.4 145.339 235.802 145.725L216.336 158.301C216.358 159.176 216.113 160.037 215.634 160.77C215.154 161.503 214.463 162.072 213.652 162.402C212.842 162.733 211.949 162.808 211.094 162.619C210.24 162.43 209.462 161.985 208.867 161.344C208.271 160.702 207.884 159.895 207.758 159.028C207.633 158.162 207.774 157.277 208.163 156.493C208.552 155.709 209.171 155.061 209.937 154.637C210.703 154.213 211.58 154.032 212.451 154.119Z" fill="#A0616A"/>
<path d="M227.574 140.28C227.345 140.145 227.147 139.963 226.995 139.746C226.843 139.528 226.74 139.28 226.692 139.019L225.026 129.892C224.588 128.606 224.678 127.198 225.276 125.978C225.875 124.758 226.932 123.824 228.218 123.383C229.503 122.942 230.911 123.028 232.133 123.623C233.355 124.218 234.291 125.274 234.736 126.558L238.992 134.835C239.113 135.071 239.183 135.33 239.195 135.596C239.207 135.861 239.161 136.126 239.062 136.372C238.962 136.619 238.811 136.84 238.618 137.023C238.425 137.205 238.195 137.344 237.943 137.43L229.105 140.436C228.854 140.522 228.587 140.552 228.323 140.525C228.058 140.498 227.803 140.415 227.574 140.28Z" fill="#47C87A"/>
<path d="M153.251 113.535H82.031C80.288 113.535 78.6164 114.228 77.3839 115.46C76.1514 116.693 75.459 118.364 75.459 120.107C75.459 121.85 76.1514 123.522 77.3839 124.754C78.6164 125.987 80.288 126.679 82.031 126.679H145.919L151.127 134.685C151.239 134.863 151.394 135.01 151.578 135.112C151.762 135.214 151.969 135.268 152.179 135.268C152.305 135.268 152.431 135.25 152.553 135.215C152.818 135.14 153.051 134.98 153.216 134.76C153.381 134.539 153.468 134.27 153.465 133.995V126.675C155.188 126.619 156.821 125.888 158.01 124.639C159.199 123.391 159.85 121.724 159.822 120C159.794 118.276 159.089 116.632 157.86 115.422C156.631 114.213 154.975 113.535 153.251 113.535ZM153.251 125.833H152.614V133.995C152.615 134.086 152.586 134.175 152.532 134.249C152.477 134.322 152.4 134.376 152.313 134.402C152.225 134.428 152.131 134.425 152.046 134.393C151.96 134.361 151.887 134.302 151.838 134.225L146.383 125.833H82.031C80.5129 125.833 79.0571 125.23 77.9837 124.157C76.9102 123.083 76.3072 121.627 76.3072 120.109C76.3072 118.591 76.9102 117.135 77.9837 116.062C79.0571 114.989 80.5129 114.386 82.031 114.386H153.251C154.769 114.386 156.225 114.989 157.298 116.062C158.372 117.135 158.975 118.591 158.975 120.109C158.975 121.627 158.372 123.083 157.298 124.157C156.225 125.23 154.769 125.833 153.251 125.833Z" fill="#3F3D56"/>
<path d="M121.882 85.5592H6.57189C4.82944 85.5592 3.15834 86.2514 1.92624 87.4835C0.694136 88.7156 0.00195312 90.3867 0.00195312 92.1292C0.00195312 93.8716 0.694136 95.5427 1.92624 96.7748C3.15834 98.0069 4.82944 98.6991 6.57189 98.6991H7.63166V106.438C7.62736 106.713 7.71403 106.981 7.87819 107.202C8.04235 107.422 8.27481 107.583 8.53942 107.658C8.66222 107.693 8.78943 107.711 8.91728 107.711C9.12722 107.711 9.33381 107.658 9.51771 107.557C9.7016 107.456 9.8568 107.309 9.96879 107.132L15.4482 98.6991H121.882C123.624 98.6991 125.295 98.0069 126.527 96.7748C127.759 95.5427 128.452 93.8716 128.452 92.1292C128.452 90.3867 127.759 88.7156 126.527 87.4835C125.295 86.2514 123.624 85.5592 121.882 85.5592ZM121.882 97.853H14.9883L9.25822 106.668C9.20854 106.745 9.13533 106.803 9.04951 106.835C8.96369 106.867 8.86987 106.87 8.78206 106.844C8.69426 106.818 8.61718 106.765 8.56235 106.692C8.50751 106.618 8.47786 106.529 8.47783 106.438V97.853H6.5719C5.05385 97.853 3.59798 97.2499 2.52456 96.1765C1.45114 95.1031 0.848103 93.6472 0.848103 92.1292C0.848103 90.6111 1.45114 89.1552 2.52456 88.0818C3.59798 87.0084 5.05385 86.4053 6.5719 86.4053H121.882C123.4 86.4053 124.856 87.0084 125.929 88.0818C127.002 89.1552 127.605 90.6111 127.605 92.1292C127.605 93.6472 127.002 95.1031 125.929 96.1765C124.856 97.2499 123.4 97.853 121.882 97.853Z" fill="#CCCCCC"/>
<path d="M77.7918 29.5986H6.57189C4.82944 29.5986 3.15835 30.2908 1.92625 31.5229C0.694143 32.755 0.00195312 34.4261 0.00195312 36.1686C0.00195312 37.911 0.694143 39.5821 1.92625 40.8142C3.15835 42.0463 4.82944 42.7385 6.57189 42.7385H7.63166V50.477C7.62736 50.752 7.71403 51.0207 7.87819 51.2413C8.04236 51.4619 8.27481 51.6221 8.53942 51.697C8.66204 51.7338 8.78925 51.7532 8.91728 51.7545C9.12754 51.7539 9.33424 51.7002 9.5181 51.5982C9.70197 51.4962 9.85702 51.3493 9.9688 51.1712L15.4482 42.7385H77.7918C79.5343 42.7385 81.2054 42.0463 82.4375 40.8142C83.6696 39.5821 84.3618 37.911 84.3618 36.1686C84.3618 34.4261 83.6696 32.755 82.4375 31.5229C81.2054 30.2908 79.5343 29.5986 77.7918 29.5986ZM77.7918 41.8924H14.9883L9.25821 50.7112C9.2077 50.7873 9.13407 50.8451 9.04817 50.8761C8.96228 50.9071 8.86868 50.9097 8.7812 50.8835C8.69373 50.8572 8.61701 50.8036 8.56238 50.7304C8.50776 50.6572 8.47811 50.5684 8.47783 50.477V41.8924H6.57189C5.05385 41.8924 3.59798 41.2893 2.52456 40.2159C1.45114 39.1425 0.848097 37.6866 0.848097 36.1686C0.848097 34.6505 1.45114 33.1947 2.52456 32.1212C3.59798 31.0478 5.05385 30.4448 6.57189 30.4448H77.7918C79.3099 30.4448 80.7658 31.0478 81.8392 32.1212C82.9126 33.1947 83.5156 34.6505 83.5156 36.1686C83.5156 37.6866 82.9126 39.1425 81.8392 40.2159C80.7658 41.2893 79.3099 41.8924 77.7918 41.8924Z" fill="#CCCCCC"/>
<path d="M153.251 57.5789H53.6276C51.8851 57.5789 50.214 58.2711 48.9819 59.5032C47.7498 60.7353 47.0576 62.4064 47.0576 64.1489C47.0576 65.8913 47.7498 67.5624 48.9819 68.7945C50.214 70.0266 51.8851 70.7188 53.6276 70.7188H144.268L151.127 81.271C151.239 81.4491 151.394 81.5959 151.578 81.6979C151.762 81.7999 151.969 81.8537 152.179 81.8542C152.305 81.8532 152.431 81.8339 152.552 81.7967C152.818 81.7228 153.051 81.563 153.216 81.3423C153.381 81.1215 153.469 80.8524 153.464 80.5768V70.7188C155.188 70.6629 156.821 69.9317 158.01 68.683C159.199 67.4343 159.85 65.7681 159.822 64.0438C159.794 62.3195 159.089 60.6754 157.86 59.466C156.631 58.2566 154.975 57.5788 153.251 57.5789ZM153.251 69.8727H152.614V80.5768C152.617 80.6685 152.59 80.7585 152.535 80.8323C152.481 80.9062 152.403 80.9594 152.314 80.9834C152.227 81.0116 152.133 81.0099 152.047 80.9787C151.96 80.9475 151.887 80.8884 151.838 80.8109L144.728 69.8727H53.6276C52.1095 69.8727 50.6536 69.2696 49.5802 68.1962C48.5068 67.1228 47.9038 65.6669 47.9038 64.1489C47.9038 62.6308 48.5068 61.1749 49.5802 60.1015C50.6536 59.0281 52.1095 58.4251 53.6276 58.4251H153.251C154.769 58.4251 156.225 59.0281 157.298 60.1015C158.372 61.1749 158.975 62.6308 158.975 64.1489C158.975 65.6669 158.372 67.1228 157.298 68.1962C156.225 69.2696 154.769 69.8727 153.251 69.8727Z" fill="#3F3D56"/>
<path d="M83.9383 123.712C85.8114 123.712 87.3298 122.193 87.3298 120.32C87.3298 118.447 85.8114 116.929 83.9383 116.929C82.0653 116.929 80.5469 118.447 80.5469 120.32C80.5469 122.193 82.0653 123.712 83.9383 123.712Z" fill="#47C87A"/>
<path d="M94.1131 123.712C95.9862 123.712 97.5046 122.193 97.5046 120.32C97.5046 118.447 95.9862 116.929 94.1131 116.929C92.2401 116.929 90.7217 118.447 90.7217 120.32C90.7217 122.193 92.2401 123.712 94.1131 123.712Z" fill="#47C87A"/>
<path d="M104.288 123.712C106.161 123.712 107.679 122.193 107.679 120.32C107.679 118.447 106.161 116.929 104.288 116.929C102.415 116.929 100.896 118.447 100.896 120.32C100.896 122.193 102.415 123.712 104.288 123.712Z" fill="#47C87A"/>
<path d="M110.586 90.4512H17.8673C17.4066 90.4513 16.9648 90.6345 16.639 90.9603C16.3132 91.2861 16.1301 91.7279 16.1299 92.1886V92.4926C16.1301 92.9534 16.3132 93.3952 16.639 93.721C16.9648 94.0468 17.4066 94.2299 17.8673 94.2301H110.586C111.046 94.2292 111.488 94.0459 111.814 93.7202C112.139 93.3946 112.323 92.9531 112.323 92.4926V92.1886C112.323 91.7281 112.139 91.2867 111.814 90.961C111.488 90.6354 111.046 90.452 110.586 90.4512Z" fill="#CCCCCC"/>
<path d="M74.7642 34.0676H9.5988C9.13825 34.0684 8.69682 34.2517 8.37117 34.5774C8.04551 34.9031 7.86218 35.3445 7.86133 35.805V36.109C7.86218 36.5695 8.04551 37.011 8.37116 37.3366C8.69682 37.6623 9.13825 37.8456 9.5988 37.8465H74.7642C75.2247 37.8456 75.6662 37.6623 75.9918 37.3366C76.3175 37.011 76.5008 36.5695 76.5017 36.109V35.805C76.5008 35.3445 76.3175 34.9031 75.9918 34.5774C75.6662 34.2517 75.2247 34.0684 74.7642 34.0676Z" fill="#CCCCCC"/>
<path d="M136.024 62.4709H70.8586C70.398 62.4718 69.9566 62.6551 69.6309 62.9808C69.3053 63.3064 69.1219 63.7479 69.1211 64.2084V64.5124C69.1219 64.9729 69.3053 65.4144 69.6309 65.74C69.9566 66.0657 70.398 66.249 70.8586 66.2498H136.024C136.484 66.2488 136.925 66.0653 137.25 65.7396C137.575 65.4139 137.757 64.9725 137.757 64.5124V64.2084C137.757 63.7483 137.575 63.3069 137.25 62.9812C136.925 62.6555 136.484 62.472 136.024 62.4709Z" fill="#47C87A"/>
<path d="M299.589 250.171H143.093C142.984 250.171 142.88 250.128 142.803 250.051C142.726 249.974 142.683 249.869 142.683 249.76C142.683 249.652 142.726 249.547 142.803 249.47C142.88 249.393 142.984 249.35 143.093 249.35H299.589C299.698 249.35 299.802 249.393 299.879 249.47C299.957 249.547 300 249.652 300 249.76C300 249.869 299.957 249.974 299.879 250.051C299.802 250.128 299.698 250.171 299.589 250.171Z" fill="#3F3D56"/>
</g>
<defs>
<clipPath id="clip0_1129_6">
<rect width="300" height="250.171" fill="white"/>
</clipPath>
</defs>
</svg>
