<svg width="23" height="23" viewBox="0 0 23 23" fill="none" xmlns="http://www.w3.org/2000/svg">
<path d="M20.4604 10.6375H11.6725V13.2537H17.9113C17.595 16.905 14.5571 18.467 11.6821 18.467C8.01168 18.467 4.79168 15.5729 4.79168 11.5C4.79168 7.57079 7.85835 4.53288 11.6917 4.53288C14.6529 4.53288 16.3875 6.42079 16.3875 6.42079L18.2084 4.52329C18.2084 4.52329 15.87 1.91663 11.5959 1.91663C6.15252 1.91663 1.94543 6.51663 1.94543 11.5C1.94543 16.3395 5.90335 21.0833 11.7396 21.0833C16.8667 21.0833 20.6042 17.5662 20.6042 12.372C20.6042 11.27 20.4604 10.6375 20.4604 10.6375Z" fill="white" fill-opacity="0.7"/>
</svg>
