<svg width="20" height="20" viewBox="0 0 20 20" fill="none" xmlns="http://www.w3.org/2000/svg">
<mask id="mask0_612_1248" style="mask-type:alpha" maskUnits="userSpaceOnUse" x="0" y="0" width="20" height="20">
<rect width="20" height="20" fill="#47C87A"/>
</mask>
<g mask="url(#mask0_612_1248)">
<path d="M2.5 19.1667V5.83337C2.5 5.37504 2.66306 4.98282 2.98917 4.65671C3.31583 4.33004 3.70833 4.16671 4.16667 4.16671H12.5C12.9583 4.16671 13.3508 4.33004 13.6775 4.65671C14.0036 4.98282 14.1667 5.37504 14.1667 5.83337V19.1667L8.33333 16.6667L2.5 19.1667ZM15.8333 16.6667V2.50004H5V0.833374H15.8333C16.2917 0.833374 16.6842 0.99643 17.0108 1.32254C17.3369 1.64921 17.5 2.04171 17.5 2.50004V16.6667H15.8333Z" fill="#47C87A"/>
</g>
</svg>
