<svg width="27" height="27" viewBox="0 0 27 27" fill="none" xmlns="http://www.w3.org/2000/svg">
<mask id="mask0_307_1379" style="mask-type:alpha" maskUnits="userSpaceOnUse" x="0" y="0" width="27" height="27">
<rect width="27" height="27" fill="#D9D9D9"/>
</mask>
<g mask="url(#mask0_307_1379)">
<path d="M6.75049 15.75H20.2505V13.5H6.75049V15.75ZM6.75049 12.375H20.2505V10.125H6.75049V12.375ZM6.75049 9H20.2505V6.75H6.75049V9ZM24.7505 24.75L20.2505 20.25H4.50049C3.88174 20.25 3.35224 20.0299 2.91199 19.5896C2.47099 19.1486 2.25049 18.6188 2.25049 18V4.5C2.25049 3.88125 2.47099 3.35137 2.91199 2.91037C3.35224 2.47012 3.88174 2.25 4.50049 2.25H22.5005C23.1192 2.25 23.6491 2.47012 24.0901 2.91037C24.5304 3.35137 24.7505 3.88125 24.7505 4.5V24.75Z" fill="#47C87A"/>
</g>
</svg>
