<svg width="26" height="21" viewBox="0 0 26 21" fill="none" xmlns="http://www.w3.org/2000/svg">
<path d="M11.9 17.0625C12.6744 17.0625 13.3 16.476 13.3 15.75C13.3 15.024 12.6744 14.4375 11.9 14.4375H7.00001C6.22563 14.4375 5.6 13.851 5.6 13.125V7.87502H7.00001C7.56438 7.87502 8.07626 7.5551 8.29501 7.06291C8.51376 6.57073 8.39126 6.00881 7.99313 5.63147L5.19313 3.00647C4.64625 2.49377 3.75813 2.49377 3.21125 3.00647L0.411254 5.63147C0.00875432 6.00881 -0.109371 6.57073 0.109379 7.06291C0.328129 7.5551 0.835629 7.87502 1.40438 7.87502H2.80438V13.125C2.80438 15.2989 4.68563 17.0625 7.00438 17.0625H11.9ZM13.3 3.93752C12.5256 3.93752 11.9 4.52405 11.9 5.25002C11.9 5.976 12.5256 6.56252 13.3 6.56252H18.2C18.9744 6.56252 19.6 7.14905 19.6 7.87502V13.125H18.2C17.6356 13.125 17.1238 13.4449 16.905 13.9371C16.6863 14.4293 16.8088 14.9912 17.2069 15.3686L20.0069 17.9936C20.5538 18.5063 21.4419 18.5063 21.9888 17.9936L24.7888 15.3686C25.1913 14.9912 25.3094 14.4293 25.0906 13.9371C24.8719 13.4449 24.3644 13.125 23.7956 13.125H22.3956V7.87502C22.3956 5.7012 20.5144 3.93752 18.1956 3.93752H13.3Z" fill="#47C87A"/>
</svg>
