<svg width="28" height="28" viewBox="0 0 28 28" fill="none" xmlns="http://www.w3.org/2000/svg">
<path d="M5.8335 25.6667C4.86127 25.6667 4.03488 25.3264 3.35433 24.6458C2.67377 23.9653 2.3335 23.1389 2.3335 22.1667V5.83333C2.3335 4.86111 2.67377 4.03472 3.35433 3.35416C4.03488 2.67361 4.86127 2.33333 5.8335 2.33333H22.1668C23.1391 2.33333 23.9654 2.67361 24.646 3.35416C25.3266 4.03472 25.6668 4.86111 25.6668 5.83333V22.1667C25.6668 23.1389 25.3266 23.9653 24.646 24.6458C23.9654 25.3264 23.1391 25.6667 22.1668 25.6667H5.8335ZM5.8335 23.3333H22.1668C22.4974 23.3333 22.7743 23.2213 22.9975 22.9973C23.2215 22.7741 23.3335 22.4972 23.3335 22.1667V5.83333C23.3335 5.50277 23.2215 5.2255 22.9975 5.0015C22.7743 4.77827 22.4974 4.66666 22.1668 4.66666H5.8335C5.50294 4.66666 5.22566 4.77827 5.00166 5.0015C4.77844 5.2255 4.66683 5.50277 4.66683 5.83333V22.1667C4.66683 22.4972 4.77844 22.7741 5.00166 22.9973C5.22566 23.2213 5.50294 23.3333 5.8335 23.3333ZM7.00016 21L11.6668 16.3333L13.7668 18.4042L16.3335 15.1667L21.0002 21H7.00016ZM9.3335 11.6667C8.69183 11.6667 8.14272 11.438 7.68616 10.9807C7.22883 10.5241 7.00016 9.97499 7.00016 9.33333C7.00016 8.69166 7.22883 8.14255 7.68616 7.68599C8.14272 7.22866 8.69183 6.99999 9.3335 6.99999C9.97516 6.99999 10.5247 7.22866 10.982 7.68599C11.4386 8.14255 11.6668 8.69166 11.6668 9.33333C11.6668 9.97499 11.4386 10.5241 10.982 10.9807C10.5247 11.438 9.97516 11.6667 9.3335 11.6667Z" fill="#47C87A"/>
</svg>
